<mxfile modified="2022-03-16T14:23:31.402Z" host="app.diagrams.net" agent="5.0 (X11; Linux x86_64) AppleWebKit/537.36 (KHTML, like Gecko) Chrome/96.0.4664.93 Safari/537.36" etag="Qt1mHIz6qSV0vB84IkPk" version="17.1.3" type="github">
  <diagram id="Ht1M8jgEwFfnCIfOTk4-" name="Page-1">
    <mxGraphModel dx="1112" dy="548" grid="1" gridSize="10" guides="1" tooltips="1" connect="1" arrows="1" fold="1" page="1" pageScale="1" pageWidth="1169" pageHeight="827" math="0" shadow="0">
      <root>
        <mxCell id="0" />
        <mxCell id="1" parent="0" />
        <mxCell id="HvEl3XydUEswTJVLT-U7-4" value="Authentication&lt;br&gt;Tomcat&lt;br&gt;" style="text;html=1;align=center;verticalAlign=middle;resizable=0;points=[];autosize=1;strokeColor=none;fillColor=none;" parent="1" vertex="1">
          <mxGeometry x="370" y="271.92" width="90" height="30" as="geometry" />
        </mxCell>
        <mxCell id="HvEl3XydUEswTJVLT-U7-5" value="Authorization Zuul Gateway&lt;br&gt;Refresh Token&lt;br&gt;Tomcat" style="text;html=1;align=center;verticalAlign=middle;resizable=0;points=[];autosize=1;strokeColor=none;fillColor=none;" parent="1" vertex="1">
          <mxGeometry x="378.11" y="411.92" width="160" height="50" as="geometry" />
        </mxCell>
        <mxCell id="HvEl3XydUEswTJVLT-U7-27" style="edgeStyle=orthogonalEdgeStyle;rounded=0;orthogonalLoop=1;jettySize=auto;html=1;fontSize=14;" parent="1" source="HvEl3XydUEswTJVLT-U7-6" target="HvEl3XydUEswTJVLT-U7-23" edge="1">
          <mxGeometry relative="1" as="geometry">
            <Array as="points">
              <mxPoint x="458" y="200" />
            </Array>
          </mxGeometry>
        </mxCell>
        <mxCell id="aqlVziVWmXirSc4pEJSH-10" style="edgeStyle=orthogonalEdgeStyle;rounded=0;orthogonalLoop=1;jettySize=auto;html=1;" parent="1" source="HvEl3XydUEswTJVLT-U7-6" edge="1">
          <mxGeometry relative="1" as="geometry">
            <mxPoint x="680" y="321.4200000000001" as="targetPoint" />
          </mxGeometry>
        </mxCell>
        <mxCell id="HvEl3XydUEswTJVLT-U7-6" value="" style="sketch=0;outlineConnect=0;fontColor=#232F3E;gradientColor=none;fillColor=#D45B07;strokeColor=none;dashed=0;verticalLabelPosition=bottom;verticalAlign=top;align=center;html=1;fontSize=12;fontStyle=0;aspect=fixed;pointerEvents=1;shape=mxgraph.aws4.container_1;" parent="1" vertex="1">
          <mxGeometry x="434.11" y="305.92" width="48" height="31" as="geometry" />
        </mxCell>
        <mxCell id="aqlVziVWmXirSc4pEJSH-7" style="edgeStyle=orthogonalEdgeStyle;rounded=0;orthogonalLoop=1;jettySize=auto;html=1;" parent="1" source="HvEl3XydUEswTJVLT-U7-7" target="aqlVziVWmXirSc4pEJSH-1" edge="1">
          <mxGeometry relative="1" as="geometry">
            <Array as="points">
              <mxPoint x="458" y="616" />
            </Array>
          </mxGeometry>
        </mxCell>
        <mxCell id="aqlVziVWmXirSc4pEJSH-8" style="edgeStyle=orthogonalEdgeStyle;rounded=0;orthogonalLoop=1;jettySize=auto;html=1;" parent="1" source="HvEl3XydUEswTJVLT-U7-7" target="aqlVziVWmXirSc4pEJSH-3" edge="1">
          <mxGeometry relative="1" as="geometry">
            <Array as="points">
              <mxPoint x="458" y="686" />
            </Array>
          </mxGeometry>
        </mxCell>
        <mxCell id="aqlVziVWmXirSc4pEJSH-11" style="edgeStyle=orthogonalEdgeStyle;rounded=0;orthogonalLoop=1;jettySize=auto;html=1;" parent="1" source="HvEl3XydUEswTJVLT-U7-7" edge="1">
          <mxGeometry relative="1" as="geometry">
            <mxPoint x="730" y="360" as="targetPoint" />
          </mxGeometry>
        </mxCell>
        <mxCell id="HvEl3XydUEswTJVLT-U7-7" value="" style="sketch=0;outlineConnect=0;fontColor=#232F3E;gradientColor=none;fillColor=#D45B07;strokeColor=none;dashed=0;verticalLabelPosition=bottom;verticalAlign=top;align=center;html=1;fontSize=12;fontStyle=0;aspect=fixed;pointerEvents=1;shape=mxgraph.aws4.container_1;" parent="1" vertex="1">
          <mxGeometry x="434.11" y="461.92" width="48" height="31" as="geometry" />
        </mxCell>
        <mxCell id="HvEl3XydUEswTJVLT-U7-9" value="Angular Project&lt;br&gt;Nginx" style="text;html=1;align=center;verticalAlign=middle;resizable=0;points=[];autosize=1;strokeColor=none;fillColor=none;" parent="1" vertex="1">
          <mxGeometry x="198.11" y="306.9200000000001" width="100" height="30" as="geometry" />
        </mxCell>
        <mxCell id="HvEl3XydUEswTJVLT-U7-11" value="" style="outlineConnect=0;dashed=0;verticalLabelPosition=bottom;verticalAlign=top;align=center;html=1;shape=mxgraph.aws3.classic_load_balancer;fillColor=#F58536;gradientColor=none;" parent="1" vertex="1">
          <mxGeometry x="71" y="98.07999999999998" width="69" height="72" as="geometry" />
        </mxCell>
        <mxCell id="HvEl3XydUEswTJVLT-U7-13" value="K8S&lt;br&gt;LoadBalancer&lt;br&gt;Discovery&lt;br&gt;" style="text;html=1;align=center;verticalAlign=middle;resizable=0;points=[];autosize=1;strokeColor=none;fillColor=none;" parent="1" vertex="1">
          <mxGeometry x="60.5" y="40" width="90" height="50" as="geometry" />
        </mxCell>
        <mxCell id="HvEl3XydUEswTJVLT-U7-29" style="edgeStyle=orthogonalEdgeStyle;rounded=0;orthogonalLoop=1;jettySize=auto;html=1;fontSize=14;" parent="1" target="HvEl3XydUEswTJVLT-U7-6" edge="1">
          <mxGeometry relative="1" as="geometry">
            <Array as="points">
              <mxPoint x="348.11" y="362.92" />
              <mxPoint x="348.11" y="321.92" />
            </Array>
            <mxPoint x="272.11" y="363.3936842105264" as="sourcePoint" />
          </mxGeometry>
        </mxCell>
        <mxCell id="HvEl3XydUEswTJVLT-U7-30" style="edgeStyle=orthogonalEdgeStyle;rounded=0;orthogonalLoop=1;jettySize=auto;html=1;fontSize=14;" parent="1" target="HvEl3XydUEswTJVLT-U7-7" edge="1">
          <mxGeometry relative="1" as="geometry">
            <Array as="points">
              <mxPoint x="348.11" y="362.92" />
              <mxPoint x="348.11" y="477.92" />
            </Array>
            <mxPoint x="272.11" y="363.3936842105264" as="sourcePoint" />
          </mxGeometry>
        </mxCell>
        <mxCell id="HvEl3XydUEswTJVLT-U7-16" value="" style="sketch=0;outlineConnect=0;fontColor=#232F3E;gradientColor=none;fillColor=#D45B07;strokeColor=none;dashed=0;verticalLabelPosition=bottom;verticalAlign=top;align=center;html=1;fontSize=12;fontStyle=0;aspect=fixed;pointerEvents=1;shape=mxgraph.aws4.container_1;" parent="1" vertex="1">
          <mxGeometry x="220.11" y="347.88" width="48" height="31" as="geometry" />
        </mxCell>
        <mxCell id="HvEl3XydUEswTJVLT-U7-19" value="&lt;b&gt;&lt;font style=&quot;font-size: 14px&quot;&gt;&lt;u&gt;AUTHENTICATION-AUTHORIZATION ARCHITECTURE&lt;/u&gt;&lt;/font&gt;&lt;/b&gt;" style="text;html=1;align=center;verticalAlign=middle;resizable=0;points=[];autosize=1;strokeColor=none;fillColor=none;" parent="1" vertex="1">
          <mxGeometry x="400" y="40" width="370" height="20" as="geometry" />
        </mxCell>
        <mxCell id="HvEl3XydUEswTJVLT-U7-23" value="" style="verticalLabelPosition=bottom;html=1;verticalAlign=top;strokeWidth=1;align=center;outlineConnect=0;dashed=0;outlineConnect=0;shape=mxgraph.aws3d.oracleDataCenter;fillColor=#ffffff;strokeColor=#5E5E5E;aspect=fixed;fontSize=14;" parent="1" vertex="1">
          <mxGeometry x="690" y="150" width="71.89" height="83" as="geometry" />
        </mxCell>
        <mxCell id="HvEl3XydUEswTJVLT-U7-26" value="&lt;font style=&quot;font-size: 12px&quot;&gt;Auth DB&lt;/font&gt;" style="text;html=1;align=center;verticalAlign=middle;resizable=0;points=[];autosize=1;strokeColor=none;fillColor=none;fontSize=14;" parent="1" vertex="1">
          <mxGeometry x="613.11" y="150.07999999999998" width="60" height="20" as="geometry" />
        </mxCell>
        <mxCell id="aqlVziVWmXirSc4pEJSH-1" value="" style="sketch=0;outlineConnect=0;fontColor=#232F3E;gradientColor=none;fillColor=#D45B07;strokeColor=none;dashed=0;verticalLabelPosition=bottom;verticalAlign=top;align=center;html=1;fontSize=12;fontStyle=0;aspect=fixed;pointerEvents=1;shape=mxgraph.aws4.container_1;" parent="1" vertex="1">
          <mxGeometry x="664.11" y="600.0000000000001" width="48" height="31" as="geometry" />
        </mxCell>
        <mxCell id="aqlVziVWmXirSc4pEJSH-3" value="" style="sketch=0;outlineConnect=0;fontColor=#232F3E;gradientColor=none;fillColor=#D45B07;strokeColor=none;dashed=0;verticalLabelPosition=bottom;verticalAlign=top;align=center;html=1;fontSize=12;fontStyle=0;aspect=fixed;pointerEvents=1;shape=mxgraph.aws4.container_1;" parent="1" vertex="1">
          <mxGeometry x="666" y="670" width="48" height="31" as="geometry" />
        </mxCell>
        <mxCell id="aqlVziVWmXirSc4pEJSH-5" value="Business Logic 1" style="text;html=1;align=center;verticalAlign=middle;resizable=0;points=[];autosize=1;strokeColor=none;fillColor=none;" parent="1" vertex="1">
          <mxGeometry x="630" y="580" width="110" height="20" as="geometry" />
        </mxCell>
        <mxCell id="aqlVziVWmXirSc4pEJSH-6" value="Business Logic N ..." style="text;html=1;align=center;verticalAlign=middle;resizable=0;points=[];autosize=1;strokeColor=none;fillColor=none;" parent="1" vertex="1">
          <mxGeometry x="630" y="650.0000000000001" width="120" height="20" as="geometry" />
        </mxCell>
        <mxCell id="aqlVziVWmXirSc4pEJSH-9" value="" style="sketch=0;aspect=fixed;html=1;points=[];align=center;image;fontSize=12;image=img/lib/mscae/Cache_Redis_Product.svg;" parent="1" vertex="1">
          <mxGeometry x="687.26" y="289.42" width="77.38" height="65" as="geometry" />
        </mxCell>
        <mxCell id="aqlVziVWmXirSc4pEJSH-12" value="JWT Tokens DB" style="text;html=1;align=center;verticalAlign=middle;resizable=0;points=[];autosize=1;strokeColor=none;fillColor=none;" parent="1" vertex="1">
          <mxGeometry x="590" y="271.92" width="100" height="20" as="geometry" />
        </mxCell>
        <mxCell id="aqlVziVWmXirSc4pEJSH-13" value="&lt;font color=&quot;#1d0dff&quot;&gt;Validate token&lt;/font&gt;" style="text;html=1;align=center;verticalAlign=middle;resizable=0;points=[];autosize=1;strokeColor=none;fillColor=none;fontSize=12;" parent="1" vertex="1">
          <mxGeometry x="494" y="450" width="90" height="20" as="geometry" />
        </mxCell>
        <mxCell id="aqlVziVWmXirSc4pEJSH-14" value="&lt;font color=&quot;#1d0dff&quot;&gt;Store token&lt;/font&gt;" style="text;html=1;align=center;verticalAlign=middle;resizable=0;points=[];autosize=1;strokeColor=none;fillColor=none;fontSize=12;" parent="1" vertex="1">
          <mxGeometry x="482.11" y="300" width="80" height="20" as="geometry" />
        </mxCell>
        <mxCell id="aqlVziVWmXirSc4pEJSH-15" value="&lt;font color=&quot;#1d0dff&quot;&gt;Return token&lt;/font&gt;" style="text;html=1;align=center;verticalAlign=middle;resizable=0;points=[];autosize=1;strokeColor=none;fillColor=none;fontSize=12;" parent="1" vertex="1">
          <mxGeometry x="320" y="300" width="80" height="20" as="geometry" />
        </mxCell>
        <mxCell id="aqlVziVWmXirSc4pEJSH-16" value="Oracle" style="text;html=1;align=center;verticalAlign=middle;resizable=0;points=[];autosize=1;strokeColor=none;fillColor=none;fontSize=12;" parent="1" vertex="1">
          <mxGeometry x="618.11" y="170.08" width="50" height="20" as="geometry" />
        </mxCell>
        <mxCell id="aqlVziVWmXirSc4pEJSH-17" value="Redis" style="text;html=1;align=center;verticalAlign=middle;resizable=0;points=[];autosize=1;strokeColor=none;fillColor=none;fontSize=12;" parent="1" vertex="1">
          <mxGeometry x="614.11" y="291.92" width="50" height="20" as="geometry" />
        </mxCell>
      </root>
    </mxGraphModel>
  </diagram>
</mxfile>
